<?xml version="1.0" encoding="UTF-8" standalone="no"?>
<svg
   xmlns:dc="http://purl.org/dc/elements/1.1/"
   xmlns:cc="http://creativecommons.org/ns#"
   xmlns:rdf="http://www.w3.org/1999/02/22-rdf-syntax-ns#"
   xmlns:svg="http://www.w3.org/2000/svg"
   xmlns="http://www.w3.org/2000/svg"
   xmlns:xlink="http://www.w3.org/1999/xlink"
   xmlns:sodipodi="http://sodipodi.sourceforge.net/DTD/sodipodi-0.dtd"
   xmlns:inkscape="http://www.inkscape.org/namespaces/inkscape"
   width="450"
   height="450"
   viewBox="0 0 450.00001 450"
   version="1.1"
   id="svg2"
   inkscape:version="0.91 r13725"
   sodipodi:docname="Monix-Blue-Hexa-2.svg"
   inkscape:export-filename="/tmp/monix-32-square.png"
   inkscape:export-xdpi="6.4000001"
   inkscape:export-ydpi="6.4000001">
  <metadata
     id="metadata35">
    <rdf:RDF>
      <cc:Work
         rdf:about="">
        <dc:format>image/svg+xml</dc:format>
        <dc:type
           rdf:resource="http://purl.org/dc/dcmitype/StillImage" />
        <dc:title>Monix - Blue</dc:title>
      </cc:Work>
    </rdf:RDF>
  </metadata>
  <sodipodi:namedview
     pagecolor="#e0e0e0"
     bordercolor="#666666"
     borderopacity="1"
     objecttolerance="10"
     gridtolerance="10"
     guidetolerance="10"
     inkscape:pageopacity="0"
     inkscape:pageshadow="2"
     inkscape:window-width="1289"
     inkscape:window-height="763"
     id="namedview33"
     showgrid="false"
     inkscape:snap-others="false"
     inkscape:zoom="1"
     inkscape:cx="290.3476"
     inkscape:cy="195.59992"
     inkscape:window-x="0"
     inkscape:window-y="0"
     inkscape:window-maximized="0"
     inkscape:current-layer="layer4"
     showguides="true"
     inkscape:guide-bbox="true"
     fit-margin-top="0"
     fit-margin-left="0"
     fit-margin-right="0"
     fit-margin-bottom="0">
    <sodipodi:guide
       position="113.5941,-20.792045"
       orientation="0,1"
       id="guide4475" />
    <sodipodi:guide
       position="1,109"
       orientation="0.86478894,0.50213553"
       id="guide5380" />
    <sodipodi:guide
       position="433.00001,115"
       orientation="0.86405128,-0.50340381"
       id="guide5382" />
    <sodipodi:guide
       position="39.098591,-0.51853033"
       orientation="0,1"
       id="guide5384" />
    <sodipodi:guide
       position="398.00001,432"
       orientation="0.86563271,0.50067954"
       id="guide5386" />
    <sodipodi:guide
       position="62.000001,450"
       orientation="-0.86573483,0.50050295"
       id="guide5388" />
    <sodipodi:guide
       position="72.617189,130.47656"
       orientation="-0.98162697,-0.19081009"
       id="guide4375" />
    <sodipodi:guide
       position="154.89844,150.21094"
       orientation="-0.98419344,-0.17709676"
       id="guide4391" />
    <sodipodi:guide
       position="305.03516,251.72266"
       orientation="0.98166704,0.19060382"
       id="guide4393" />
    <sodipodi:guide
       position="391.70313,256.64453"
       orientation="-0.98422449,-0.17692413"
       id="guide4395" />
    <sodipodi:guide
       position="245.92188,354.95703"
       orientation="0.94512183,-0.32671812"
       id="guide4644" />
    <sodipodi:guide
       position="79.506537,95.034149"
       orientation="-0.9486611,0.31629435"
       id="guide4646" />
  </sodipodi:namedview>
  <!-- Generator: Sketch 40.2 (33826) - http://www.bohemiancoding.com/sketch -->
  <title
     id="title4">Monix - Blue</title>
  <desc
     id="desc6">Created with Sketch.</desc>
  <defs
     id="defs8">
    <linearGradient
       x1="1"
       y1="0"
       x2="0"
       y2="1"
       id="linearGradient-1">
      <stop
         stop-color="#FFFFFF"
         stop-opacity="0.5"
         offset="0%"
         id="stop11" />
      <stop
         stop-color="#000000"
         stop-opacity="0.5"
         offset="100%"
         id="stop13" />
    </linearGradient>
    <polygon
       id="path-2"
       points="5.0882072,18.615868 39.874811,18.615868 36.339549,22.582279 2.1384523,25.835594 " />
    <polygon
       id="path-3"
       points="24.875441,18.615868 59.662045,18.615868 56.126784,22.582279 21.925686,25.835594 " />
    <linearGradient
       id="linearGradient4317"
       inkscape:collect="always">
      <stop
         id="stop4319"
         offset="0"
         style="stop-color:#1f3170;stop-opacity:1" />
      <stop
         id="stop4321"
         offset="1"
         style="stop-color:#131d43;stop-opacity:1" />
    </linearGradient>
    <polygon
       points="36.339549,22.582279 2.1384523,25.835594 5.0882072,18.615868 39.874811,18.615868 "
       id="path-2-2" />
    <polygon
       points="56.126784,22.582279 21.925686,25.835594 24.875441,18.615868 59.662045,18.615868 "
       id="path-3-4" />
    <linearGradient
       inkscape:collect="always"
       xlink:href="#linearGradient4317"
       id="linearGradient4652"
       gradientUnits="userSpaceOnUse"
       gradientTransform="matrix(5.9737266,0,0,5.9737266,-59.924251,-388.71538)"
       x1="21.549999"
       y1="2.844362"
       x2="21.722855"
       y2="40.852512" />
    <linearGradient
       inkscape:collect="always"
       xlink:href="#linearGradient4317"
       id="linearGradient4661"
       gradientUnits="userSpaceOnUse"
       gradientTransform="matrix(5.9737266,0,0,5.9737266,68.175509,-388.73916)"
       x1="21.549999"
       y1="2.844362"
       x2="21.722855"
       y2="40.852512" />
  </defs>
  <g
     inkscape:groupmode="layer"
     id="layer4"
     inkscape:label="Drawing"
     style="display:inline;opacity:0.95"
     transform="translate(91.638348,481.18983)">
    <g
       id="layer5-7"
       inkscape:label="Shadow2"
       style="display:inline"
       transform="matrix(0.8185608,0,0,0.8185608,-85.438966,-69.095004)" />
    <g
       id="g4663">
      <path
         style="fill:#3765ac;fill-opacity:0.95686275;stroke:#ffffff;stroke-width:3;stroke-miterlimit:4;stroke-dasharray:none;stroke-dashoffset:0;stroke-opacity:1"
         d="m 325.50762,-144.79699 c -10.62926,19.46301 -168.53838,110.425111 -192.37883,110.425086 -23.84045,-1.8e-5 -182.301672,-94.592366 -191.820194,-111.392686 -9.518528,-16.80031 -11.824856,-199.86785 0.558714,-221.81776 12.383539,-21.94991 170.14119,-110.61128 192.3788,-110.42512 22.2376,0.18628 182.25027,93.89436 191.82016,111.39271 9.56991,17.49836 10.07062,202.35476 -0.55865,221.81777 z"
         id="path4577"
         inkscape:connector-curvature="0"
         sodipodi:nodetypes="zzzzzzz" />
      <path
         sodipodi:nodetypes="ccccc"
         inkscape:connector-curvature="0"
         id="path4581"
         d="m 68.65378,-368.3982 60.63762,54.00046 -59.345464,171.64169 -64.7140347,-36.62923 z"
         style="display:inline;fill:url(#linearGradient4652);fill-opacity:1;stroke:none;stroke-width:0.81856078;stroke-miterlimit:4;stroke-dasharray:none;stroke-dashoffset:0;stroke-opacity:1" />
      <path
         sodipodi:nodetypes="ccscscssssccscc"
         inkscape:connector-curvature="0"
         id="path4583"
         d="m -58.773716,-366.27318 c 0,0 0.395291,-0.98625 0.956015,-1.83832 0.233645,-0.37152 0.485121,-0.72713 0.745611,-1.06969 0.229846,-0.30216 0.47544,-0.59812 0.7021,-0.88194 0.264834,-0.31563 0.533836,-0.61776 0.807641,-0.92194 1.044111,-1.16 2.150497,-2.25111 3.094924,-3.13069 0.557979,-0.51717 2.05343,-1.86241 2.659363,-2.40542 5.828621,-5.22335 15.41174,-11.94408 25.832813,-18.95415 4.130574,-2.77856 8.938834,-5.89511 13.81671,-8.98356 6.5355303,-4.138 13.1872522,-8.22557 18.4174034,-11.38222 6.2927006,-3.79794 11.5812286,-6.87098 11.5812286,-6.87098 l 50.366094,279.92755 c 0,0 -30.537548,0.17109 -44.806315,3.39413 -14.569827,3.29201 -37.528242,13.16051 -37.528242,13.16051 z"
         style="display:inline;fill:#ffffff;fill-opacity:1;stroke:none;stroke-width:0.81856078;stroke-miterlimit:4;stroke-dasharray:none;stroke-dashoffset:0;stroke-opacity:1" />
      <path
         style="display:inline;fill:url(#linearGradient4661);fill-opacity:1;stroke:none;stroke-width:0.81856078;stroke-miterlimit:4;stroke-dasharray:none;stroke-dashoffset:0;stroke-opacity:1"
         d="m 196.75353,-368.42198 60.63762,54.00046 -59.34546,171.64169 -64.71404,-36.62923 z"
         id="path4657"
         inkscape:connector-curvature="0"
         sodipodi:nodetypes="ccccc" />
      <path
         style="display:inline;fill:#ffffff;fill-opacity:1;stroke:none;stroke-width:0.81856078;stroke-miterlimit:4;stroke-dasharray:none;stroke-dashoffset:0;stroke-opacity:1"
         d="m 68.67935,-368.43351 c 0,0 25.424066,0.4323 43.736,-3.56734 18.06773,-3.94625 41.8722,-14.14892 41.8722,-14.14892 l 43.75639,243.3652 c 0,0 -30.53755,0.17108 -44.80632,3.39412 -14.56982,3.29202 -37.52825,13.16051 -37.52825,13.16051 z"
         id="path4587"
         inkscape:connector-curvature="0"
         sodipodi:nodetypes="csccscc" />
      <path
         style="display:inline;fill:#ffffff;fill-opacity:1;stroke:none;stroke-width:0.81856078;stroke-miterlimit:4;stroke-dasharray:none;stroke-dashoffset:0;stroke-opacity:1"
         d="m 196.78222,-368.43333 c 0,0 25.42407,0.4323 43.736,-3.56734 18.06774,-3.94624 41.8722,-14.14892 41.8722,-14.14892 l 43.3154,240.97649 c -0.42485,0.88335 -1.17274,1.93515 -2.25092,3.14548 -0.65823,0.7389 -1.42883,1.53298 -2.32553,2.3878 -1.04933,1.00033 -2.27132,2.10321 -3.62805,3.25708 -0.53587,0.45575 -1.07789,0.8981 -1.46308,1.21274 -0.3852,0.31464 -0.60136,0.48519 -0.7943,0.64549 -4.92424,4.09132 -13.39236,10.07052 -18.86131,13.88139 -16.07273,11.19981 -40.11032,25.440635 -45.86868,28.866553 z"
         id="path4591"
         inkscape:connector-curvature="0"
         sodipodi:nodetypes="csccssszsscc" />
    </g>
  </g>
</svg>
