<?xml version="1.0" encoding="UTF-8" standalone="no"?>
<svg
   xmlns:dc="http://purl.org/dc/elements/1.1/"
   xmlns:cc="http://creativecommons.org/ns#"
   xmlns:rdf="http://www.w3.org/1999/02/22-rdf-syntax-ns#"
   xmlns:svg="http://www.w3.org/2000/svg"
   xmlns="http://www.w3.org/2000/svg"
   xmlns:xlink="http://www.w3.org/1999/xlink"
   xmlns:sodipodi="http://sodipodi.sourceforge.net/DTD/sodipodi-0.dtd"
   xmlns:inkscape="http://www.inkscape.org/namespaces/inkscape"
   width="76"
   height="76"
   viewBox="0 0 76.000001 76"
   version="1.1"
   id="svg2"
   inkscape:version="0.91 r13725"
   sodipodi:docname="Monix-Blue-Hexa-2.svg"
   inkscape:export-filename="/tmp/monix-400-square.png"
   inkscape:export-xdpi="473.67999"
   inkscape:export-ydpi="473.67999">
  <metadata
     id="metadata35">
    <rdf:RDF>
      <cc:Work
         rdf:about="">
        <dc:format>image/svg+xml</dc:format>
        <dc:type
           rdf:resource="http://purl.org/dc/dcmitype/StillImage" />
        <dc:title>Monix - Blue</dc:title>
      </cc:Work>
    </rdf:RDF>
  </metadata>
  <sodipodi:namedview
     pagecolor="#dddddd"
     bordercolor="#666666"
     borderopacity="1"
     objecttolerance="10"
     gridtolerance="10"
     guidetolerance="10"
     inkscape:pageopacity="0"
     inkscape:pageshadow="2"
     inkscape:window-width="1212"
     inkscape:window-height="683"
     id="namedview33"
     showgrid="false"
     inkscape:snap-others="false"
     inkscape:zoom="256"
     inkscape:cx="8.7173911"
     inkscape:cy="58.250096"
     inkscape:window-x="0"
     inkscape:window-y="0"
     inkscape:window-maximized="0"
     inkscape:current-layer="layer4"
     showguides="true"
     inkscape:guide-bbox="true"
     fit-margin-top="0"
     fit-margin-left="0"
     fit-margin-right="0"
     fit-margin-bottom="0">
    <sodipodi:guide
       position="86.604615,-43.05484"
       orientation="1,0"
       id="guide4240" />
    <sodipodi:guide
       position="118.95485,-18.991884"
       orientation="0,1"
       id="guide4475" />
    <sodipodi:guide
       position="70.871562,67.114474"
       orientation="0.86478894,0.50213553"
       id="guide5380" />
    <sodipodi:guide
       position="62.546923,9.624991"
       orientation="0.86405128,-0.50340381"
       id="guide5382" />
    <sodipodi:guide
       position="38.546922,1.2499909"
       orientation="0,1"
       id="guide5384" />
    <sodipodi:guide
       position="-4.0817567,8.2478355"
       orientation="0.86563271,0.50067954"
       id="guide5386" />
    <sodipodi:guide
       position="1.0447675,75.599755"
       orientation="-0.86573483,0.50050295"
       id="guide5388" />
    <sodipodi:guide
       position="81.670834,19.445436"
       orientation="0,1"
       id="guide4175" />
    <sodipodi:guide
       position="56.023438,16.792969"
       orientation="-0.98162697,-0.19081009"
       id="guide4375" />
    <sodipodi:guide
       position="68.468751,25.046875"
       orientation="-0.98419344,-0.17709676"
       id="guide4391" />
    <sodipodi:guide
       position="10.367188,36.785156"
       orientation="0.98166704,0.19060382"
       id="guide4393" />
    <sodipodi:guide
       position="27.695313,19.488281"
       orientation="-0.98422449,-0.17692413"
       id="guide4395" />
    <sodipodi:guide
       position="6.5468751,55.96875"
       orientation="0,1"
       id="guide4399" />
  </sodipodi:namedview>
  <!-- Generator: Sketch 40.2 (33826) - http://www.bohemiancoding.com/sketch -->
  <title
     id="title4">Monix - Blue</title>
  <desc
     id="desc6">Created with Sketch.</desc>
  <defs
     id="defs8">
    <linearGradient
       x1="1"
       y1="0"
       x2="0"
       y2="1"
       id="linearGradient-1">
      <stop
         stop-color="#FFFFFF"
         stop-opacity="0.5"
         offset="0%"
         id="stop11" />
      <stop
         stop-color="#000000"
         stop-opacity="0.5"
         offset="100%"
         id="stop13" />
    </linearGradient>
    <polygon
       id="path-2"
       points="36.339549,22.582279 2.1384523,25.835594 5.0882072,18.615868 39.874811,18.615868 " />
    <polygon
       id="path-3"
       points="56.126784,22.582279 21.925686,25.835594 24.875441,18.615868 59.662045,18.615868 " />
    <linearGradient
       id="linearGradient4317"
       inkscape:collect="always">
      <stop
         id="stop4319"
         offset="0"
         style="stop-color:#1f3170;stop-opacity:1" />
      <stop
         id="stop4321"
         offset="1"
         style="stop-color:#131d43;stop-opacity:1" />
    </linearGradient>
    <polygon
       points="5.0882072,18.615868 39.874811,18.615868 36.339549,22.582279 2.1384523,25.835594 "
       id="path-2-2" />
    <polygon
       points="24.875441,18.615868 59.662045,18.615868 56.126784,22.582279 21.925686,25.835594 "
       id="path-3-4" />
    <linearGradient
       gradientTransform="matrix(0.97488971,0,0,0.97488971,-90.542628,-89.017357)"
       gradientUnits="userSpaceOnUse"
       y2="40.852512"
       x2="21.722855"
       y1="2.844362"
       x1="21.549999"
       id="linearGradient4323"
       xlink:href="#linearGradient4317"
       inkscape:collect="always" />
    <linearGradient
       y2="40.852512"
       x2="21.722855"
       y1="2.844362"
       x1="21.549999"
       gradientTransform="matrix(0.97488971,0,0,0.97488971,-69.679989,-89.017357)"
       gradientUnits="userSpaceOnUse"
       id="linearGradient4199"
       xlink:href="#linearGradient4317"
       inkscape:collect="always" />
  </defs>
  <g
     inkscape:groupmode="layer"
     id="layer5"
     inkscape:label="Shadow2"
     style="display:none"
     transform="translate(96.999097,105.38969)" />
  <g
     inkscape:groupmode="layer"
     id="layer4"
     inkscape:label="Front2"
     style="display:inline"
     transform="translate(96.999097,105.38969)">
    <path
       style="fill:#3765ac;fill-opacity:1;stroke:none;stroke-width:0.5;stroke-miterlimit:4;stroke-dasharray:none;stroke-dashoffset:0;stroke-opacity:1"
       d="m -27.641597,-49.210793 c -1.734654,3.17629 -27.504829,18.020963 -31.3955,18.020959 -3.890672,-3e-6 -29.750948,-15.437118 -31.304335,-18.178867 -1.553388,-2.741748 -1.929772,-32.617682 0.09118,-36.199825 2.020947,-3.582143 27.766402,-18.051344 31.395496,-18.020964 3.629093,0.0304 29.742559,15.323206 31.30433,18.178872 1.561772,2.855666 1.643487,33.023536 -0.09117,36.199825 z"
       id="path4777"
       inkscape:connector-curvature="0"
       sodipodi:nodetypes="zzzzzzz" />
    <g
       id="layer5-7"
       inkscape:label="Shadow2"
       style="display:inline"
       transform="matrix(0.8185608,0,0,0.8185608,-85.438966,-69.095004)" />
    <g
       id="g4381">
      <path
         style="display:inline;fill:url(#linearGradient4323);fill-opacity:1;stroke:none;stroke-width:0.81856078;stroke-miterlimit:4;stroke-dasharray:none;stroke-dashoffset:0;stroke-opacity:1"
         d="m -69.559177,-85.701669 6.264716,9.016667 -6.053841,27.807283 -9.349417,-3.727507 z"
         id="rect4274"
         inkscape:connector-curvature="0"
         sodipodi:nodetypes="ccccc" />
      <path
         style="display:inline;fill:#ffffff;fill-opacity:1;stroke:none;stroke-width:0.81856078;stroke-miterlimit:4;stroke-dasharray:none;stroke-dashoffset:0;stroke-opacity:1"
         d="m -90.821557,-87.740704 c 2.731668,4.509599 8.287445,-6.883887 13.168049,-7.561433 l 8.347678,46.419763 c 0,0 -4.983613,0.02792 -7.312222,0.553908 -2.377741,0.537245 -6.124468,2.147746 -6.124468,2.147746 z"
         id="rect4235"
         inkscape:connector-curvature="0"
         sodipodi:nodetypes="cccscc" />
    </g>
    <path
       style="display:inline;fill:url(#linearGradient4199);fill-opacity:1;stroke:none;stroke-width:0.81856078;stroke-miterlimit:4;stroke-dasharray:none;stroke-dashoffset:0;stroke-opacity:1"
       d="m -48.659319,-85.701669 6.227497,9.016667 -6.035231,27.807283 -9.368027,-3.727507 z"
       id="path4195"
       inkscape:connector-curvature="0"
       sodipodi:nodetypes="ccccc" />
    <path
       style="display:inline;fill:#ffffff;fill-opacity:1;stroke:none;stroke-width:0.81856078;stroke-miterlimit:4;stroke-dasharray:none;stroke-dashoffset:0;stroke-opacity:1"
       d="m -69.555004,-85.707432 c 0,0 4.149112,0.07055 7.137551,-0.582176 2.948586,-0.644013 6.833385,-2.309051 6.833385,-2.309051 l 7.140878,39.716285 c 0,0 -4.983613,0.02792 -7.312223,0.553908 -2.37774,0.537245 -6.124468,2.147746 -6.124468,2.147746 z"
       id="path4197"
       inkscape:connector-curvature="0"
       sodipodi:nodetypes="csccscc" />
    <path
       sodipodi:nodetypes="csccscc"
       inkscape:connector-curvature="0"
       id="path4387"
       d="m -48.649097,-85.707402 c 0,0 4.149112,0.07055 7.137551,-0.582176 2.948586,-0.644013 6.833385,-2.309051 6.833385,-2.309051 l 7.140878,39.716285 c 0,0 -3.372776,2.582839 -5.411874,3.824277 -1.880555,1.144915 -6.897866,4.644717 -6.897866,4.644717 z"
       style="display:inline;fill:#ffffff;fill-opacity:1;stroke:none;stroke-width:0.81856078;stroke-miterlimit:4;stroke-dasharray:none;stroke-dashoffset:0;stroke-opacity:1" />
    <path
       style="display:inline;fill:#ffffff;fill-opacity:1;stroke:none;stroke-width:0.81856078;stroke-miterlimit:4;stroke-dasharray:none;stroke-dashoffset:0;stroke-opacity:1"
       d="m -48.649097,-85.707402 c 0,0 4.149112,0.07055 7.137551,-0.582176 2.948586,-0.644013 6.833385,-2.309051 6.833385,-2.309051 l 7.140878,39.716285 c 0,0 -3.482151,2.457839 -5.411874,3.824277 -1.796808,1.272321 -6.897866,4.644717 -6.897866,4.644717 z"
       id="path4389"
       inkscape:connector-curvature="0"
       sodipodi:nodetypes="csccscc" />
  </g>
  <g
     inkscape:groupmode="layer"
     id="layer1"
     inkscape:label="Background">
    <path
       style="display:inline;fill:#000000;fill-opacity:1;stroke:none;stroke-width:0.5;stroke-miterlimit:4;stroke-dasharray:none;stroke-dashoffset:0;stroke-opacity:1"
       d="M 1.0449219 0.40039062 L 1.0449219 74.75 L 72.75 74.75 L 72.75 0.40039062 L 1.0449219 0.40039062 z M 38.144531 1.8007812 C 41.773624 1.8311813 67.887448 17.12285 69.449219 19.978516 C 71.010991 22.834182 71.092079 53.003398 69.357422 56.179688 C 67.622768 59.355978 41.853562 74.199223 37.962891 74.199219 C 34.072219 74.199216 8.2115901 58.763233 6.6582031 56.021484 C 5.1048151 53.279736 4.7270949 23.402455 6.7480469 19.820312 C 8.7689939 16.238169 34.515437 1.7704012 38.144531 1.8007812 z "
       id="rect4401"
       transform="translate(-96.999097,-105.38969)" />
  </g>
</svg>
