<?xml version="1.0" encoding="UTF-8" standalone="no"?>
<!DOCTYPE svg PUBLIC "-//W3C//DTD SVG 1.1//EN"
 "http://www.w3.org/Graphics/SVG/1.1/DTD/svg11.dtd">
<!-- Generated by graphviz version 2.43.0 (0)
 -->
<!-- Title: Dependencies Pages: 1 -->
<svg width="583pt" height="404pt"
 viewBox="0.00 0.00 582.79 404.00" xmlns="http://www.w3.org/2000/svg" xmlns:xlink="http://www.w3.org/1999/xlink">
<g id="graph0" class="graph" transform="scale(1 1) rotate(0) translate(4 400)">
<title>Dependencies</title>
<polygon fill="white" stroke="transparent" points="-4,4 -4,-400 578.79,-400 578.79,4 -4,4"/>
<!-- JCTools (shaded) -->
<g id="node1" class="node">
<title>JCTools (shaded)</title>
<ellipse fill="none" stroke="gray" cx="502" cy="-18" rx="72.59" ry="18"/>
<text text-anchor="middle" x="502" y="-14.3" font-family="Times,serif" font-size="14.00" fill="gray">JCTools (shaded)</text>
</g>
<!-- reactive&#45;streams.org -->
<g id="node2" class="node">
<title>reactive&#45;streams.org</title>
<ellipse fill="none" stroke="gray" cx="155" cy="-18" rx="83.39" ry="18"/>
<text text-anchor="middle" x="155" y="-14.3" font-family="Times,serif" font-size="14.00" fill="gray">reactive&#45;streams.org</text>
</g>
<!-- Cats -->
<g id="node3" class="node">
<title>Cats</title>
<ellipse fill="none" stroke="darkred" cx="27" cy="-18" rx="27" ry="18"/>
<text text-anchor="middle" x="27" y="-14.3" font-family="Times,serif" font-size="14.00" fill="darkred">Cats</text>
</g>
<!-- Cats Effect -->
<g id="node4" class="node">
<title>Cats Effect</title>
<ellipse fill="none" stroke="darkred" cx="111" cy="-90" rx="50.09" ry="18"/>
<text text-anchor="middle" x="111" y="-86.3" font-family="Times,serif" font-size="14.00" fill="darkred">Cats Effect</text>
</g>
<!-- Cats Effect&#45;&gt;Cats -->
<g id="edge6" class="edge">
<title>Cats Effect&#45;&gt;Cats</title>
<path fill="none" stroke="black" d="M91.94,-73.12C79.87,-63.06 64.15,-49.96 51.2,-39.17"/>
<polygon fill="black" stroke="black" points="53.08,-36.18 43.16,-32.47 48.6,-41.56 53.08,-36.18"/>
</g>
<!-- monix -->
<g id="node5" class="node">
<title>monix</title>
<ellipse fill="none" stroke="#104e8b" cx="158" cy="-378" rx="33.6" ry="18"/>
<text text-anchor="middle" x="158" y="-374.3" font-family="Times,serif" font-size="14.00" fill="#104e8b">monix</text>
</g>
<!-- monix&#45;reactive -->
<g id="node9" class="node">
<title>monix&#45;reactive</title>
<ellipse fill="none" stroke="#104e8b" cx="158" cy="-306" rx="64.19" ry="18"/>
<text text-anchor="middle" x="158" y="-302.3" font-family="Times,serif" font-size="14.00" fill="#104e8b">monix&#45;reactive</text>
</g>
<!-- monix&#45;&gt;monix&#45;reactive -->
<g id="edge12" class="edge">
<title>monix&#45;&gt;monix&#45;reactive</title>
<path fill="none" stroke="black" d="M158,-359.7C158,-351.98 158,-342.71 158,-334.11"/>
<polygon fill="black" stroke="black" points="161.5,-334.1 158,-324.1 154.5,-334.1 161.5,-334.1"/>
</g>
<!-- monix&#45;tail -->
<g id="node10" class="node">
<title>monix&#45;tail</title>
<ellipse fill="none" stroke="#104e8b" cx="66" cy="-234" rx="48.19" ry="18"/>
<text text-anchor="middle" x="66" y="-230.3" font-family="Times,serif" font-size="14.00" fill="#104e8b">monix&#45;tail</text>
</g>
<!-- monix&#45;&gt;monix&#45;tail -->
<g id="edge13" class="edge">
<title>monix&#45;&gt;monix&#45;tail</title>
<path fill="none" stroke="black" d="M133.63,-365.34C117.37,-356.31 96.87,-342.25 85,-324 73.05,-305.62 68.47,-281.02 66.78,-262.34"/>
<polygon fill="black" stroke="black" points="70.26,-261.85 66.09,-252.11 63.28,-262.33 70.26,-261.85"/>
</g>
<!-- monix&#45;java -->
<g id="node11" class="node">
<title>monix&#45;java</title>
<ellipse fill="none" stroke="#104e8b" cx="292" cy="-306" rx="51.19" ry="18"/>
<text text-anchor="middle" x="292" y="-302.3" font-family="Times,serif" font-size="14.00" fill="#104e8b">monix&#45;java</text>
</g>
<!-- monix&#45;&gt;monix&#45;java -->
<g id="edge14" class="edge">
<title>monix&#45;&gt;monix&#45;java</title>
<path fill="none" stroke="black" d="M181.34,-364.81C201.73,-354.16 231.67,-338.51 255.27,-326.19"/>
<polygon fill="black" stroke="black" points="257.05,-329.2 264.3,-321.47 253.81,-323 257.05,-329.2"/>
</g>
<!-- monix&#45;execution -->
<g id="node6" class="node">
<title>monix&#45;execution</title>
<ellipse fill="none" stroke="#104e8b" cx="292" cy="-90" rx="70.69" ry="18"/>
<text text-anchor="middle" x="292" y="-86.3" font-family="Times,serif" font-size="14.00" fill="#104e8b">monix&#45;execution</text>
</g>
<!-- monix&#45;execution&#45;&gt;JCTools (shaded) -->
<g id="edge1" class="edge">
<title>monix&#45;execution&#45;&gt;JCTools (shaded)</title>
<path fill="none" stroke="black" d="M333.24,-75.25C366.87,-64.04 414.54,-48.15 450.64,-36.12"/>
<polygon fill="black" stroke="black" points="452.12,-39.32 460.5,-32.83 449.9,-32.68 452.12,-39.32"/>
</g>
<!-- monix&#45;execution&#45;&gt;reactive&#45;streams.org -->
<g id="edge2" class="edge">
<title>monix&#45;execution&#45;&gt;reactive&#45;streams.org</title>
<path fill="none" stroke="black" d="M261.93,-73.64C242.31,-63.61 216.47,-50.41 195.1,-39.49"/>
<polygon fill="black" stroke="black" points="196.44,-36.24 185.94,-34.81 193.26,-42.48 196.44,-36.24"/>
</g>
<!-- monix/implicitbox -->
<g id="node12" class="node">
<title>monix/implicitbox</title>
<ellipse fill="none" stroke="gray" cx="334" cy="-18" rx="77.19" ry="18"/>
<text text-anchor="middle" x="334" y="-14.3" font-family="Times,serif" font-size="14.00" fill="gray">monix/implicitbox</text>
</g>
<!-- monix&#45;execution&#45;&gt;monix/implicitbox -->
<g id="edge3" class="edge">
<title>monix&#45;execution&#45;&gt;monix/implicitbox</title>
<path fill="none" stroke="black" d="M302.17,-72.05C307.05,-63.92 313,-54 318.43,-44.94"/>
<polygon fill="black" stroke="black" points="321.49,-46.65 323.63,-36.28 315.49,-43.05 321.49,-46.65"/>
</g>
<!-- monix&#45;catnap -->
<g id="node7" class="node">
<title>monix&#45;catnap</title>
<ellipse fill="none" stroke="#104e8b" cx="126" cy="-162" rx="59.59" ry="18"/>
<text text-anchor="middle" x="126" y="-158.3" font-family="Times,serif" font-size="14.00" fill="#104e8b">monix&#45;catnap</text>
</g>
<!-- monix&#45;catnap&#45;&gt;Cats Effect -->
<g id="edge4" class="edge">
<title>monix&#45;catnap&#45;&gt;Cats Effect</title>
<path fill="none" stroke="black" d="M122.29,-143.7C120.64,-135.98 118.65,-126.71 116.81,-118.11"/>
<polygon fill="black" stroke="black" points="120.18,-117.15 114.67,-108.1 113.34,-118.62 120.18,-117.15"/>
</g>
<!-- monix&#45;catnap&#45;&gt;monix&#45;execution -->
<g id="edge5" class="edge">
<title>monix&#45;catnap&#45;&gt;monix&#45;execution</title>
<path fill="none" stroke="black" d="M159.19,-147C184.58,-136.3 219.84,-121.43 247.65,-109.7"/>
<polygon fill="black" stroke="black" points="249.29,-112.81 257.15,-105.7 246.57,-106.36 249.29,-112.81"/>
</g>
<!-- monix&#45;eval -->
<g id="node8" class="node">
<title>monix&#45;eval</title>
<ellipse fill="none" stroke="#104e8b" cx="183" cy="-234" rx="51.19" ry="18"/>
<text text-anchor="middle" x="183" y="-230.3" font-family="Times,serif" font-size="14.00" fill="#104e8b">monix&#45;eval</text>
</g>
<!-- monix&#45;eval&#45;&gt;monix&#45;catnap -->
<g id="edge7" class="edge">
<title>monix&#45;eval&#45;&gt;monix&#45;catnap</title>
<path fill="none" stroke="black" d="M169.49,-216.41C162.57,-207.91 153.99,-197.37 146.29,-187.91"/>
<polygon fill="black" stroke="black" points="148.84,-185.5 139.81,-179.96 143.41,-189.92 148.84,-185.5"/>
</g>
<!-- monix&#45;reactive&#45;&gt;monix&#45;eval -->
<g id="edge9" class="edge">
<title>monix&#45;reactive&#45;&gt;monix&#45;eval</title>
<path fill="none" stroke="black" d="M164.05,-288.05C166.87,-280.18 170.28,-270.62 173.43,-261.79"/>
<polygon fill="black" stroke="black" points="176.76,-262.87 176.83,-252.28 170.17,-260.52 176.76,-262.87"/>
</g>
<!-- monix&#45;tail&#45;&gt;monix&#45;catnap -->
<g id="edge8" class="edge">
<title>monix&#45;tail&#45;&gt;monix&#45;catnap</title>
<path fill="none" stroke="black" d="M79.92,-216.76C87.38,-208.06 96.73,-197.15 105.06,-187.43"/>
<polygon fill="black" stroke="black" points="107.89,-189.5 111.74,-179.63 102.58,-184.95 107.89,-189.5"/>
</g>
<!-- monix&#45;java&#45;&gt;monix&#45;execution -->
<g id="edge10" class="edge">
<title>monix&#45;java&#45;&gt;monix&#45;execution</title>
<path fill="none" stroke="black" d="M292,-287.85C292,-250.83 292,-163.18 292,-118.39"/>
<polygon fill="black" stroke="black" points="295.5,-118.23 292,-108.23 288.5,-118.23 295.5,-118.23"/>
</g>
<!-- monix&#45;java&#45;&gt;monix&#45;eval -->
<g id="edge11" class="edge">
<title>monix&#45;java&#45;&gt;monix&#45;eval</title>
<path fill="none" stroke="black" d="M268.35,-289.81C252.78,-279.81 232.2,-266.6 215.15,-255.65"/>
<polygon fill="black" stroke="black" points="216.91,-252.62 206.61,-250.16 213.13,-258.51 216.91,-252.62"/>
</g>
</g>
</svg>
